<svg aria-hidden="true" style="position: absolute; width: 0; height: 0; overflow: hidden;" version="1.1" xmlns="http://www.w3.org/2000/svg" xmlns:xlink="http://www.w3.org/1999/xlink">
<defs>
<symbol id="credit-card" viewBox="0 0 42 32">
<path d="M36.149 32h-30.559c-3.082 0-5.59-2.497-5.59-5.565v-20.87c0-3.069 2.509-5.565 5.593-5.565h30.553c3.085 0 5.593 2.496 5.593 5.565v20.87c0 3.068-2.509 5.565-5.59 5.565zM5.59 1.59c-0.001 0-0.002 0-0.003 0-2.198 0-3.98 1.778-3.987 3.974v20.87c0.008 2.197 1.791 3.975 3.989 3.975 0.001 0 0.003 0 0.004 0h30.556c0 0 0.001 0 0.001 0 2.198 0 3.981-1.778 3.989-3.974v-20.87c-0.008-2.197-1.791-3.975-3.989-3.975-0.001 0-0.003 0-0.004 0h-30.554zM28.806 4.675c0.002 0 0.005 0 0.008 0 1.986 0 3.596 1.607 3.601 3.592v0c-0.005 1.985-1.615 3.592-3.601 3.592-0.003 0-0.006 0-0.009 0h0c-0.002 0-0.005 0-0.008 0-1.986 0-3.596-1.607-3.601-3.592v-0c0.005-1.985 1.615-3.592 3.601-3.592 0.003 0 0.006 0 0.009 0h-0zM33.837 4.675c0.003 0 0.006 0 0.010 0 1.986 0 3.596 1.607 3.601 3.592v0c-0.005 1.985-1.615 3.592-3.601 3.592-0.003 0-0.007 0-0.010 0h0.001c-0.002 0-0.005 0-0.008 0-1.986 0-3.596-1.607-3.601-3.592v-0c0.005-1.985 1.615-3.592 3.601-3.592 0.003 0 0.006 0 0.009 0h-0zM4.294 22.726h6.653v2.385h-6.653v-2.385zM13.127 22.726h6.653v2.385h-6.653v-2.385zM21.958 22.726h6.656v2.385h-6.656v-2.385zM30.791 22.726h6.655v2.385h-6.656v-2.385zM4.292 4.675h12.577v2.386h-12.577v-2.386zM4.292 9.408h6.657v2.385h-6.656v-2.385z"></path>
</symbol>
<symbol id="icon-email" viewBox="0 0 40 32">
<path fill="#f1cdb3" style="fill: var(--color1, #f1cdb3)" d="M39.315 3h-38.63c-0.19 0-0.361 0.078-0.484 0.204l-0 0c-0.124 0.126-0.201 0.3-0.201 0.491 0 0 0 0 0 0v0 24.61c0 0 0 0.001 0 0.001 0 0.191 0.076 0.364 0.2 0.49l-0-0c0.123 0.126 0.295 0.204 0.485 0.204h38.63c0.19-0 0.361-0.078 0.484-0.204l0-0c0.124-0.126 0.201-0.3 0.201-0.491 0-0 0-0 0-0v0-24.61c0-0 0-0.001 0-0.001 0-0.191-0.076-0.364-0.2-0.49l0 0c-0.123-0.126-0.295-0.204-0.485-0.204h-0zM32.577 18.033c0.108 0.493 0.218 1.002 0.074 1.255-0.154 0.272-0.654 0.43-1.138 0.582-0.381 0.12-0.776 0.245-1.127 0.451-0.34 0.2-0.634 0.48-0.918 0.75-0.39 0.372-0.76 0.723-1.094 0.723s-0.703-0.352-1.094-0.724c-0.284-0.27-0.578-0.55-0.918-0.749-0.351-0.206-0.746-0.33-1.127-0.451-0.484-0.153-0.984-0.31-1.138-0.582-0.144-0.253-0.034-0.762 0.073-1.255 0.088-0.405 0.18-0.823 0.18-1.25 0-0.429-0.092-0.847-0.18-1.252-0.107-0.493-0.217-1.002-0.073-1.255 0.154-0.271 0.654-0.43 1.138-0.582 0.381-0.12 0.776-0.245 1.127-0.451 0.34-0.2 0.634-0.479 0.918-0.75 0.39-0.371 0.76-0.723 1.094-0.723s0.703 0.352 1.094 0.724c0.284 0.27 0.578 0.55 0.918 0.749 0.351 0.206 0.746 0.33 1.127 0.451 0.484 0.153 0.984 0.31 1.138 0.582 0.144 0.253 0.034 0.762-0.074 1.255-0.087 0.404-0.178 0.823-0.178 1.25 0 0.43 0.090 0.848 0.178 1.252zM30.597 11.661l-0.192-0.181c-0.515-0.49-1.155-1.1-2.031-1.1s-1.516 0.61-2.031 1.1c-0.238 0.226-0.463 0.44-0.667 0.56-0.219 0.128-0.524 0.225-0.848 0.327-0.7 0.22-1.494 0.471-1.917 1.213-0.41 0.72-0.234 1.533-0.078 2.25 0.075 0.348 0.146 0.676 0.146 0.952s-0.070 0.605-0.146 0.952c-0.135 0.622-0.286 1.316-0.055 1.959l-2.778 2.853-17.676-18.156h35.35l-7.076 7.27zM11.701 16l-10.331 10.612v-21.224l10.33 10.612zM12.664 16.989l6.848 7.035c0.124 0.127 0.297 0.206 0.489 0.206 0.095 0 0.186-0.019 0.268-0.055l-0.004 0.002c0.087-0.038 0.161-0.089 0.223-0.153l0-0 3.197-3.284c0.36 0.21 0.765 0.338 1.144 0.458 0.324 0.102 0.63 0.198 0.848 0.326 0.204 0.12 0.428 0.334 0.667 0.56 0.515 0.49 1.155 1.1 2.031 1.1s1.516-0.61 2.031-1.1c0.238-0.226 0.463-0.44 0.667-0.56 0.136-0.076 0.294-0.146 0.459-0.201l0.019-0.006 6.125 6.291h-35.35l10.338-10.62zM32.966 20.795c0.346-0.184 0.656-0.434 0.871-0.81 0.41-0.721 0.234-1.534 0.078-2.251-0.075-0.347-0.146-0.675-0.146-0.952s0.070-0.604 0.146-0.951c0.156-0.718 0.333-1.53-0.078-2.251-0.423-0.742-1.217-0.992-1.917-1.213l-0.064-0.020 6.774-6.96v21.225l-5.664-5.817z"></path>
<path fill="#f1cdb3" style="fill: var(--color1, #f1cdb3)" d="M28.374 13.242c-1.923 0-3.487 1.588-3.487 3.54s1.564 3.54 3.487 3.54 3.487-1.588 3.487-3.54-1.564-3.54-3.487-3.54zM28.374 18.932c-1.168 0-2.118-0.965-2.118-2.15s0.95-2.15 2.118-2.15 2.117 0.965 2.117 2.15-0.95 2.15-2.117 2.15z"></path>
</symbol>
<symbol id="icon-marker" viewBox="0 0 22 32">
<path fill="#f1cdb3" style="fill: var(--color1, #f1cdb3)" d="M11 0c-6.065 0-11 4.785-11 10.667 0 1.765 0.455 3.516 1.32 5.069l9.079 15.92c0.122 0.207 0.343 0.344 0.597 0.344 0.001 0 0.003 0 0.004 0h-0c0.002 0 0.003 0 0.005 0 0.254 0 0.475-0.137 0.595-0.341l0.002-0.003 9.080-15.926c0.827-1.459 1.316-3.204 1.318-5.062v-0.001c0-5.882-4.935-10.667-11-10.667zM19.476 15.090l-8.476 14.866-8.473-14.86c-0.724-1.276-1.151-2.803-1.152-4.43v-0c0-5.146 4.318-9.333 9.625-9.333s9.625 4.187 9.625 9.334c-0.001 1.624-0.427 3.149-1.173 4.47l0.024-0.046z"></path>
<path fill="#f1cdb3" style="fill: var(--color1, #f1cdb3)" d="M11 5.333c-3.033 0-5.5 2.393-5.5 5.334 0 2.94 2.467 5.333 5.5 5.333s5.5-2.393 5.5-5.333c0-2.941-2.467-5.334-5.5-5.334zM11 14.667c-2.275 0-4.125-1.795-4.125-4s1.85-4 4.125-4 4.125 1.794 4.125 4c0 2.205-1.85 4-4.125 4z"></path>
</symbol>
<symbol id="icon-phone" viewBox="0 0 40 32">
<path fill="#f1cdb3" style="fill: var(--color1, #f1cdb3)" d="M39.946 8.895l-2.436-5.99c-0.082-0.206-0.254-0.361-0.466-0.418l-0.005-0.001-2.928-0.778c-8.572-2.277-19.65-2.277-28.222 0l-2.928 0.778c-0.217 0.058-0.389 0.213-0.469 0.414l-0.002 0.005-2.436 5.99c-0.034 0.082-0.054 0.177-0.054 0.276 0 0.087 0.015 0.17 0.043 0.247l-0.002-0.005 0.974 2.796c0.058 0.164 0.169 0.297 0.312 0.381l0.003 0.002c0.099 0.059 0.219 0.094 0.346 0.094 0.048 0 0.096-0.005 0.141-0.015l-0.004 0.001 9.256-1.897c0.14-0.029 0.267-0.1 0.366-0.204 0.096-0.102 0.163-0.232 0.187-0.377l0.001-0.004 0.802-4.864c4.412-1.136 10.738-1.136 15.15 0l0.802 4.864c0.024 0.144 0.090 0.276 0.188 0.38 0.096 0.101 0.221 0.174 0.361 0.204l0.005 0.001 9.256 1.897c0.041 0.009 0.088 0.014 0.137 0.014 0.128 0 0.247-0.035 0.349-0.096l-0.003 0.002c0.146-0.086 0.257-0.219 0.313-0.378l0.002-0.005 0.974-2.796c0.026-0.072 0.041-0.155 0.041-0.242 0-0.1-0.020-0.195-0.056-0.281l0.002 0.005zM2.132 11.141l-0.5-1.435 8.965-1.92-0.276 1.677-8.19 1.678zM11.622 4.057c-0.134 0.038-0.247 0.112-0.333 0.209l-0.001 0.001c-0.087 0.099-0.147 0.222-0.169 0.359l-0.001 0.004-0.27 1.635-8.988 1.925 1.79-4.403 2.59-0.687c8.36-2.22 19.16-2.22 27.52 0l2.59 0.688 1.79 4.403-8.988-1.925-0.27-1.635c-0.023-0.14-0.084-0.264-0.171-0.363l0.001 0.001c-0.087-0.099-0.2-0.172-0.329-0.21l-0.005-0.001c-4.776-1.35-11.98-1.35-16.756 0zM37.868 11.141l-8.188-1.678-0.276-1.677 8.965 1.92-0.5 1.435z"></path>
<path fill="#f1cdb3" style="fill: var(--color1, #f1cdb3)" d="M33.29 13.119c-0.030-0.139-0.097-0.26-0.19-0.355l0 0c-0.092-0.094-0.211-0.161-0.343-0.191l-0.005-0.001-4.774-1.046-0.602-4.012c-0.026-0.175-0.112-0.326-0.235-0.435l-0.001-0.001c-0.121-0.107-0.281-0.173-0.457-0.173h-1.869v-0.941c0-0.002 0-0.005 0-0.008 0-0.389-0.313-0.705-0.701-0.71h-0c-0.388 0.005-0.701 0.321-0.701 0.71 0 0.003 0 0.006 0 0.008v-0 0.94h-6.824v-0.94c0-0.002 0-0.005 0-0.008 0-0.389-0.312-0.704-0.7-0.71h-0.001c-0.389 0.005-0.702 0.321-0.702 0.71 0 0.003 0 0.006 0 0.008v-0 0.94h-1.87c-0.175 0.001-0.335 0.067-0.457 0.175l0.001-0.001c-0.124 0.11-0.21 0.261-0.236 0.432l-0.001 0.004-0.602 4.012-4.774 1.046c-0.137 0.031-0.255 0.098-0.347 0.192l-0 0c-0.093 0.095-0.16 0.216-0.19 0.35l-0.001 0.005-3.242 14.969c-0.011 0.047-0.017 0.1-0.017 0.155v3.039c0 0.19 0.074 0.373 0.206 0.508s0.31 0.21 0.495 0.21h31.696c0.194-0.001 0.369-0.081 0.495-0.21l0-0c0.127-0.131 0.206-0.31 0.206-0.507 0-0 0-0 0-0.001v0-3.039c-0-0.055-0.006-0.108-0.018-0.16l0.001 0.005-3.242-14.97zM7.981 13.88l4.808-1.053c0.145-0.033 0.269-0.107 0.363-0.209l0-0.001c0.095-0.103 0.16-0.234 0.182-0.379l0.001-0.004 0.583-3.893h12.164l0.583 3.893c0.023 0.15 0.088 0.281 0.183 0.385l-0-0.001c0.095 0.103 0.219 0.177 0.359 0.209l0.005 0.001 4.807 1.052 2.955 13.645h-29.948l2.955-13.645zM11.797 28.962l-0.904 1.601h-1.064l0.903-1.601h1.066zM13.416 28.962h15.256l-0.903 1.601h-15.256l0.903-1.601zM4.853 28.962h4.258l-0.903 1.601h-3.355v-1.601zM29.388 30.563l0.904-1.601h4.855v1.601h-5.758z"></path>
<path fill="#f1cdb3" style="fill: var(--color1, #f1cdb3)" d="M20 26.16c4.15 0 7.525-3.458 7.525-7.71s-3.376-7.71-7.525-7.71c-4.15 0-7.525 3.458-7.525 7.71s3.376 7.71 7.525 7.71zM20 12.176c3.376 0 6.123 2.815 6.123 6.274 0 3.46-2.747 6.274-6.123 6.274s-6.123-2.815-6.123-6.274c0-3.46 2.747-6.274 6.123-6.274z"></path>
<path fill="#f1cdb3" style="fill: var(--color1, #f1cdb3)" d="M20 21.185c1.472 0 2.67-1.227 2.67-2.735s-1.198-2.735-2.67-2.735-2.67 1.227-2.67 2.735c0 1.508 1.198 2.735 2.67 2.735zM20 17.151c0.699 0 1.267 0.583 1.267 1.299s-0.568 1.298-1.267 1.298-1.267-0.582-1.267-1.298c0-0.716 0.568-1.299 1.267-1.299z"></path>
</symbol>
</defs>
</svg>
