<svg aria-hidden="true" style="position: absolute; width: 0; height: 0; overflow: hidden;" version="1.1" xmlns="http://www.w3.org/2000/svg" xmlns:xlink="http://www.w3.org/1999/xlink">
<defs>
<symbol id="arrow-2left" viewBox="0 0 73 32">
<path fill="#cdcdcd" style="fill: var(--color1, #cdcdcd)" d="M28.937 31.375l-26.278-13.664v-3.212l26.278-13.664v3.892l-21.847 11.363 21.847 11.392v3.892zM69.871 31.375l-26.278-13.664v-3.212l26.278-13.664v3.892l-21.847 11.363 21.847 11.392v3.892z"></path>
</symbol>
<symbol id="arrow-2right" viewBox="0 0 73 32">
<path d="M29.105 17.711l-26.275 13.664v-3.892l21.847-11.392-21.847-11.363v-3.892l26.281 13.664v3.212zM70.042 17.711l-26.281 13.664v-3.892l21.847-11.392-21.847-11.363v-3.892l26.281 13.664v3.212z"></path>
</symbol>
<symbol id="arrow-left" viewBox="0 0 29 32">
<path fill="#cdcdcd" style="fill: var(--color1, #cdcdcd)" d="M29.039 31.375l-26.275-13.664v-3.212l26.275-13.664v3.892l-21.847 11.363 21.847 11.392v3.892z"></path>
</symbol>
<symbol id="arrow-right" viewBox="0 0 29 32">
<path d="M26.301 17.711l-26.278 13.664v-3.892l21.847-11.392-21.847-11.363v-3.892l26.275 13.664v3.212z"></path>
</symbol>
<symbol id="one" viewBox="0 0 23 32">
<path d="M20.666 32h-19.153v-2.016c0.57-0.038 1.452-0.116 2.644-0.23 1.21-0.131 2.045-0.262 2.502-0.396 0.545-0.159 1.002-0.479 1.328-0.904l0.005-0.006c0.32-0.436 0.483-1.076 0.483-1.932v-19.942h-7.072v-2.385h1.565c2.045 0 3.869-0.378 5.481-1.137 1.629-0.756 2.793-1.571 3.494-2.444h2.359c-0.058 1.231-0.116 2.671-0.172 4.317-0.058 1.649-0.084 3.127-0.084 4.433v16.844c0 0.666 0.143 1.263 0.428 1.792 0.299 0.502 0.737 0.894 1.262 1.128l0.018 0.007c0.489 0.209 1.295 0.399 2.415 0.57 1.114 0.172 1.949 0.265 2.499 0.285v2.016z"></path>
</symbol>
</defs>
</svg>
